<svg width="172" height="50" viewBox="0 0 172 50" fill="none" xmlns="http://www.w3.org/2000/svg">
<path d="M165.079 50H6.34921C2.85873 50 0 47.1859 0 43.75V6.25C0 2.81406 2.85873 0 6.34921 0H165.079C168.57 0 171.429 2.81406 171.429 6.25V43.75C171.429 47.1859 168.57 50 165.079 50Z" fill="black"/>
<path d="M165.079 1.00156C168.019 1.00156 170.411 3.35625 170.411 6.25V43.75C170.411 46.6438 168.019 48.9984 165.079 48.9984H6.34921C3.40952 48.9984 1.01746 46.6438 1.01746 43.75V6.25C1.01746 3.35625 3.40952 1.00156 6.34921 1.00156H165.079ZM165.079 0H6.34921C2.85873 0 0 2.81406 0 6.25V43.75C0 47.1859 2.85873 50 6.34921 50H165.079C168.57 50 171.429 47.1859 171.429 43.75V6.25C171.429 2.81406 168.57 0 165.079 0Z" fill="#A6A6A6"/>
<path d="M13.251 9.42342C12.878 9.8078 12.6621 10.4062 12.6621 11.1812V38.825C12.6621 39.6 12.878 40.1984 13.251 40.5828L13.3431 40.6672L29.0796 25.1828V24.8172L13.3431 9.3328L13.251 9.42342Z" fill="url(#paint0_linear_1003_4177)"/>
<path d="M34.3193 30.3468L29.0796 25.1827V24.8171L34.3256 19.6531L34.4431 19.7202L40.6558 23.1999C42.4288 24.1874 42.4288 25.8124 40.6558 26.8062L34.4431 30.2796L34.3193 30.3468Z" fill="url(#paint1_linear_1003_4177)"/>
<path d="M34.443 30.2797L29.0795 25L13.251 40.5828C13.8399 41.1922 14.8002 41.2656 15.8922 40.6562L34.443 30.2797Z" fill="url(#paint2_linear_1003_4177)"/>
<path d="M34.443 19.7203L15.8922 9.34376C14.8002 8.74063 13.8399 8.81407 13.251 9.42344L29.0795 25L34.443 19.7203Z" fill="url(#paint3_linear_1003_4177)"/>
<path d="M60.2128 12.8047C60.2128 13.8484 59.8954 14.6844 59.27 15.3078C58.5509 16.0469 57.6144 16.4187 56.4668 16.4187C55.37 16.4187 54.4334 16.0406 53.6652 15.2953C52.8954 14.539 52.5112 13.6109 52.5112 12.5C52.5112 11.389 52.8954 10.4609 53.6652 9.71093C54.4334 8.95936 55.37 8.58124 56.4668 8.58124C57.0128 8.58124 57.5334 8.69218 58.0303 8.89843C58.5255 9.10624 58.9287 9.38749 59.2207 9.73436L58.5573 10.3937C58.0477 9.80155 57.3541 9.50936 56.4668 9.50936C55.6668 9.50936 54.9731 9.78436 54.3842 10.339C53.8017 10.8953 53.5096 11.6156 53.5096 12.5C53.5096 13.3844 53.8017 14.1109 54.3842 14.6672C54.9731 15.2156 55.6668 15.4969 56.4668 15.4969C57.316 15.4969 58.0303 15.2156 58.5938 14.6609C58.9652 14.2937 59.1763 13.7875 59.2319 13.1406H56.4668V12.2375H60.1557C60.2001 12.4328 60.2128 12.6219 60.2128 12.8047Z" fill="white" stroke="white" stroke-width="0.16" stroke-miterlimit="10"/>
<path d="M66.0652 9.67342H62.6001V12.0484H65.7239V12.9515H62.6001V15.3265H66.0652V16.2469H61.6191V8.75311H66.0652V9.67342Z" fill="white" stroke="white" stroke-width="0.16" stroke-miterlimit="10"/>
<path d="M70.1952 16.2469H69.2143V9.67342H67.0889V8.75311H72.3222V9.67342H70.1952V16.2469Z" fill="white" stroke="white" stroke-width="0.16" stroke-miterlimit="10"/>
<path d="M76.1094 16.2469V8.75311H77.0887V16.2469H76.1094Z" fill="white" stroke="white" stroke-width="0.16" stroke-miterlimit="10"/>
<path d="M81.4306 16.2469H80.4575V9.67342H78.3242V8.75311H83.5639V9.67342H81.4306V16.2469Z" fill="white" stroke="white" stroke-width="0.16" stroke-miterlimit="10"/>
<path d="M93.4712 15.2828C92.7204 16.0406 91.7903 16.4187 90.6808 16.4187C89.5649 16.4187 88.6347 16.0406 87.8839 15.2828C87.1347 14.5265 86.7617 13.5984 86.7617 12.5C86.7617 11.4015 87.1347 10.4734 87.8839 9.71718C88.6347 8.95936 89.5649 8.58124 90.6808 8.58124C91.7839 8.58124 92.7141 8.95936 93.4649 9.72342C94.2205 10.4859 94.5935 11.4078 94.5935 12.5C94.5935 13.5984 94.2204 14.5265 93.4712 15.2828ZM88.6093 14.6547C89.1744 15.2156 89.8617 15.4969 90.6808 15.4969C91.4935 15.4969 92.1871 15.2156 92.7458 14.6547C93.3093 14.0937 93.595 13.3734 93.595 12.5C93.595 11.6265 93.3093 10.9062 92.7458 10.3453C92.1871 9.78436 91.4935 9.50311 90.6808 9.50311C89.8617 9.50311 89.1744 9.78436 88.6093 10.3453C88.0458 10.9062 87.7601 11.6265 87.7601 12.5C87.7601 13.3734 88.0458 14.0937 88.6093 14.6547Z" fill="white" stroke="white" stroke-width="0.16" stroke-miterlimit="10"/>
<path d="M95.9697 16.2469V8.75311H97.1602L100.862 14.5812H100.905L100.862 13.1406V8.75311H101.841V16.2469H100.819L96.9427 10.1312H96.8999L96.9427 11.5781V16.2469H95.9697Z" fill="white" stroke="white" stroke-width="0.16" stroke-miterlimit="10"/>
<path d="M86.5206 27.1906C83.5381 27.1906 81.1016 29.425 81.1016 32.5078C81.1016 35.5656 83.5381 37.8234 86.5206 37.8234C89.5095 37.8234 91.946 35.5656 91.946 32.5078C91.946 29.425 89.5095 27.1906 86.5206 27.1906ZM86.5206 35.7297C84.8841 35.7297 83.4762 34.4 83.4762 32.5078C83.4762 30.5906 84.8841 29.2844 86.5206 29.2844C88.1571 29.2844 89.5714 30.5906 89.5714 32.5078C89.5714 34.4 88.1571 35.7297 86.5206 35.7297ZM74.6968 27.1906C71.7079 27.1906 69.2777 29.425 69.2777 32.5078C69.2777 35.5656 71.7079 37.8234 74.6968 37.8234C77.6841 37.8234 80.1158 35.5656 80.1158 32.5078C80.1158 29.425 77.6841 27.1906 74.6968 27.1906ZM74.6968 35.7297C73.0587 35.7297 71.646 34.4 71.646 32.5078C71.646 30.5906 73.0587 29.2844 74.6968 29.2844C76.3333 29.2844 77.7412 30.5906 77.7412 32.5078C77.7412 34.4 76.3333 35.7297 74.6968 35.7297ZM60.627 28.8203V31.0797H66.1079C65.9476 32.3422 65.519 33.2703 64.8619 33.9172C64.0619 34.6984 62.8158 35.5656 60.627 35.5656C57.2539 35.5656 54.6127 32.8859 54.6127 29.5656C54.6127 26.2453 57.2539 23.5656 60.627 23.5656C62.4508 23.5656 63.7777 24.2672 64.7571 25.1766L66.3746 23.5844C65.0047 22.2969 63.1825 21.3078 60.627 21.3078C56.0016 21.3078 52.1143 25.0125 52.1143 29.5656C52.1143 34.1187 56.0016 37.8234 60.627 37.8234C63.127 37.8234 65.0047 37.0172 66.4809 35.5047C67.9936 34.0156 68.465 31.9219 68.465 30.2312C68.465 29.7062 68.4206 29.2234 68.3412 28.8203H60.627ZM118.16 30.5719C117.714 29.3828 116.338 27.1906 113.535 27.1906C110.757 27.1906 108.444 29.3453 108.444 32.5078C108.444 35.4859 110.733 37.8234 113.802 37.8234C116.282 37.8234 117.714 36.3344 118.303 35.4672L116.462 34.2594C115.848 35.1437 115.011 35.7297 113.802 35.7297C112.6 35.7297 111.738 35.1875 111.186 34.1187L118.409 31.1766L118.16 30.5719ZM110.795 32.3422C110.733 30.2922 112.413 29.2422 113.616 29.2422C114.559 29.2422 115.359 29.7062 115.625 30.3703L110.795 32.3422ZM104.924 37.5H107.298V21.875H104.924V37.5ZM101.035 28.375H100.956C100.422 27.7531 99.4047 27.1906 98.1158 27.1906C95.4111 27.1906 92.9381 29.5281 92.9381 32.525C92.9381 35.5047 95.4111 37.8234 98.1158 37.8234C99.4047 37.8234 100.422 37.2562 100.956 36.6156H101.035V37.3781C101.035 39.4109 99.9317 40.5031 98.1523 40.5031C96.7015 40.5031 95.8015 39.4719 95.4301 38.6047L93.365 39.4531C93.9603 40.8625 95.5365 42.5969 98.1523 42.5969C100.936 42.5969 103.286 40.9844 103.286 37.0609V27.5141H101.035V28.375ZM98.319 35.7297C96.6825 35.7297 95.3126 34.3812 95.3126 32.525C95.3126 30.6516 96.6825 29.2844 98.319 29.2844C99.9317 29.2844 101.203 30.6516 101.203 32.525C101.203 34.3812 99.9317 35.7297 98.319 35.7297ZM129.278 21.875H123.598V37.5H125.967V31.5797H129.278C131.908 31.5797 134.487 29.7062 134.487 26.7266C134.487 23.7484 131.902 21.875 129.278 21.875ZM129.34 29.4062H125.967V24.0484H129.34C131.108 24.0484 132.117 25.4937 132.117 26.7266C132.117 27.9359 131.108 29.4062 129.34 29.4062ZM143.979 27.1609C142.268 27.1609 140.489 27.9047 139.757 29.5531L141.859 30.4203C142.311 29.5531 143.143 29.2719 144.022 29.2719C145.251 29.2719 146.497 29.9984 146.516 31.2812V31.4453C146.087 31.2016 145.17 30.8406 144.041 30.8406C141.778 30.8406 139.471 32.0672 139.471 34.3562C139.471 36.45 141.325 37.7984 143.409 37.7984C145.003 37.7984 145.882 37.0906 146.435 36.2672H146.516V37.475H148.803V31.4812C148.803 28.7109 146.702 27.1609 143.979 27.1609ZM143.694 35.7234C142.919 35.7234 141.84 35.3453 141.84 34.4C141.84 33.1906 143.186 32.7266 144.351 32.7266C145.394 32.7266 145.882 32.9531 146.516 33.2516C146.33 34.6984 145.065 35.7234 143.694 35.7234ZM157.136 27.5031L154.414 34.2766H154.333L151.519 27.5031H148.965L153.194 36.9687L150.781 42.2359H153.255L159.771 27.5031H157.136ZM135.789 37.5H138.163V21.875H135.789V37.5Z" fill="white"/>
<defs>
<linearGradient id="paint0_linear_1003_4177" x1="27.6824" y1="39.1129" x2="6.70695" y2="17.8045" gradientUnits="userSpaceOnUse">
<stop stop-color="#00A0FF"/>
<stop offset="0.0066" stop-color="#00A1FF"/>
<stop offset="0.2601" stop-color="#00BEFF"/>
<stop offset="0.5122" stop-color="#00D2FF"/>
<stop offset="0.7604" stop-color="#00DFFF"/>
<stop offset="1" stop-color="#00E3FF"/>
</linearGradient>
<linearGradient id="paint1_linear_1003_4177" x1="42.9645" y1="24.9982" x2="12.2383" y2="24.9982" gradientUnits="userSpaceOnUse">
<stop stop-color="#FFE000"/>
<stop offset="0.4087" stop-color="#FFBD00"/>
<stop offset="0.7754" stop-color="#FFA500"/>
<stop offset="1" stop-color="#FF9C00"/>
</linearGradient>
<linearGradient id="paint2_linear_1003_4177" x1="31.5265" y1="22.1298" x2="3.08219" y2="-6.76599" gradientUnits="userSpaceOnUse">
<stop stop-color="#FF3A44"/>
<stop offset="1" stop-color="#C31162"/>
</linearGradient>
<linearGradient id="paint3_linear_1003_4177" x1="9.2666" y1="49.7798" x2="21.9683" y2="36.8766" gradientUnits="userSpaceOnUse">
<stop stop-color="#32A071"/>
<stop offset="0.0685" stop-color="#2DA771"/>
<stop offset="0.4762" stop-color="#15CF74"/>
<stop offset="0.8009" stop-color="#06E775"/>
<stop offset="1" stop-color="#00F076"/>
</linearGradient>
</defs>
</svg>
